# xmcd
#
# Track frame offsets:
# 150
# 17957
# 37673
# 48721
# 64330
# 76347
# 97116
# 113443
# 127820
# 140845
# 161885
# 175261
# 190853
# 205783
# 219008
# 231837
#
# Disc length: 3291 seconds
#
#
# Revision: 0
# Processed by: cddbd v1.5.1PL2 Copyright (c) Steve Scherf et al.
# Submitted via: FreeRIP 2.944 
#
DISCID=da0cd910
DTITLE=Various Artist - 16 Megales Laikes Epitihies #1
DYEAR=2002
DGENRE=Ethnic
TTITLE0=KAZANTZIDIS - Den tha xanagapiso
TTITLE1=LINTA - To garsoni
TTITLE2=AGGELOPOULOS - Mia fotia
TTITLE3=BELLOU - To diko sou to marazi
TTITLE4=BITHIKOTSIS - Mesanihta len ta rologia
TTITLE5=KAZANTZIDIS - San apokliros girizo
TTITLE6=LABRAKI - Skalopati skalopati
TTITLE7=HRISTODOULOPOULOS - Esi oti pies
TTITLE8=BELLOU - Liga psihoula agapis sou girevo
TTITLE9=GAVALAS and KOUPTI - Tipota tipota
TTITLE10=MENIDIATIS - Helidonaki
TTITLE11=MARGARITIS - O agnostos
TTITLE12=SAKELARIOU - Tris gerontomanges
TTITLE13=GLYKERIA - Piga se magisess
TTITLE14=PANOU - Kala na pathis
TTITLE15=AGGELOPOULOS - Ta filia sou ine fotia
EXTD=
EXTT0=
EXTT1=
EXTT2=
EXTT3=
EXTT4=
EXTT5=
EXTT6=
EXTT7=
EXTT8=
EXTT9=
EXTT10=
EXTT11=
EXTT12=
EXTT13=
EXTT14=
EXTT15=
PLAYORDER=
